<svg xmlns="http://www.w3.org/2000/svg" viewBox="0 0 1200 320">
  <defs>
    <linearGradient id="bg" x1="0" y1="0" x2="1" y2="1">
      <stop offset="0%" stop-color="#f8fafc"/>
      <stop offset="55%" stop-color="#ffffff"/>
      <stop offset="100%" stop-color="#eef2ff"/>
    </linearGradient>
    <linearGradient id="accent" x1="0" y1="0" x2="1" y2="0">
      <stop offset="0%" stop-color="#2563eb"/>
      <stop offset="50%" stop-color="#0891b2"/>
      <stop offset="100%" stop-color="#7c3aed"/>
    </linearGradient>
    <pattern id="grid" width="32" height="32" patternUnits="userSpaceOnUse">
      <path d="M 32 0 L 0 0 0 32" fill="none" stroke="#64748b" stroke-opacity=".08"/>
    </pattern>
  </defs>

  <rect width="1200" height="320" rx="26" fill="url(#bg)" stroke="#d0d7de"/>
  <rect width="1200" height="320" rx="26" fill="url(#grid)"/>

  <circle cx="1050" cy="80" r="120" fill="#2563eb" opacity=".08"/>
  <circle cx="1135" cy="230" r="150" fill="#7c3aed" opacity=".06"/>

  <g transform="translate(72,58)">
    <rect width="430" height="34" rx="10" fill="#ffffff" stroke="#d0d7de"/>
    <circle cx="20" cy="17" r="5" fill="#94a3b8"/>
    <circle cx="38" cy="17" r="5" fill="#94a3b8"/>
    <circle cx="56" cy="17" r="5" fill="#94a3b8"/>
    <text x="80" y="22" fill="#57606a" font-family="monospace" font-size="14">~/github/profile</text>
  </g>

  <text x="72" y="155" fill="#1f2328" font-family="Arial, Helvetica, sans-serif" font-size="48" font-weight="700">Apurva Nikam</text>
  <text x="72" y="195" fill="#57606a" font-family="Arial, Helvetica, sans-serif" font-size="23">B.Tech CSE Student · AI/ML · Software Development</text>
  <rect x="72" y="222" width="420" height="3" rx="2" fill="url(#accent)"/>
  <text x="72" y="258" fill="#6e7781" font-family="monospace" font-size="16">$ build → learn → iterate</text>

  <g transform="translate(865,75)">
    <rect width="250" height="150" rx="18" fill="#ffffff" stroke="#d0d7de"/>
    <text x="22" y="37" fill="#6e7781" font-family="monospace" font-size="14">developer_mode</text>
    <text x="22" y="73" fill="#0891b2" font-family="monospace" font-size="16">01  AI</text>
    <text x="22" y="101" fill="#2563eb" font-family="monospace" font-size="16">02  ML</text>
    <text x="22" y="129" fill="#7c3aed" font-family="monospace" font-size="16">03  CODE</text>
  </g>
</svg>
